<?xml version="1.0" encoding="UTF-8"?>
<svg id="text" xmlns="http://www.w3.org/2000/svg" viewBox="0 0 973.76 148.65">
  <defs>
    <style>
      .cls-1 {
        fill: #e8118c;
      }
    </style>
  </defs>
  <path class="cls-1" d="M96.15,48.33L17.01,2.65c-3.55-2.05-7.79-2.05-11.34,0C2.12,4.69,0,8.37,0,12.46v81.11h6V12.46c0-1.93,1-3.65,2.67-4.62.84-.48,1.76-.72,2.67-.72s1.83.24,2.67.72l79.14,45.69c1.67.97,2.66,2.69,2.66,4.62s-.99,3.66-2.66,4.63L23,103.28v6.92l73.15-42.23c3.55-2.05,5.66-5.72,5.66-9.82s-2.11-7.77-5.66-9.82Z"/>
  <path class="cls-1" d="M0,97.13v6.71c0,4.1,2.12,7.77,5.67,9.82.76.44,1.55.79,2.36,1.03v-17.56H0Z"/>
  <path class="cls-1" d="M11.18,109.19v6.01h.16c.69,0,1.37-.06,2.05-.2,1.25-.22,2.47-.67,3.62-1.34l2.2-1.27v-15.26h-8.03v12.06Z"/>
</svg>