<?xml version="1.0" encoding="UTF-8"?>
<svg id="Layer_2" data-name="Layer 2" xmlns="http://www.w3.org/2000/svg" viewBox="0 0 1062.88 179.9">
  <defs>
    <style>
      .cls-1 {
        fill: #708090;
      }

      .cls-2 {
        fill: none;
      }

      .cls-3 {
        fill: #ea0a8c;
      }
    </style>
  </defs>
  <g>
    <path class="cls-3" d="M783.22,147.01c.27.3.41.67.41,1.1,0,.23-.05.48-.14.76l-7.22,20.77c-.13.34-.32.61-.57.79s-.5.28-.76.28c-.25-.02-.48-.12-.69-.29-.22-.17-.39-.42-.52-.74l-7.22-20.8c-.08-.18-.11-.42-.11-.72,0-.48.14-.87.42-1.17.28-.3.59-.45.93-.45.57,0,.98.37,1.25,1.1l6.17,17.74,5.83-17.77c.13-.32.31-.57.52-.76.22-.18.46-.28.72-.28.38,0,.7.15.98.45Z"/>
    <path class="cls-3" d="M798.84,170.22c-.28.32-.61.48-.99.48-.42,0-.75-.16-1-.48-.25-.32-.38-.72-.38-1.21v-20.77c0-.46.13-.85.4-1.17.26-.32.6-.48,1.02-.48.38,0,.7.16.98.48.27.32.41.71.41,1.17v20.77c0,.48-.14.88-.42,1.21Z"/>
    <path class="cls-3" d="M815.92,170.34c-1.06-.47-2.07-1.23-3.03-2.29-.4-.41-.59-.88-.59-1.41,0-.41.13-.79.4-1.12.26-.33.58-.5.93-.5.32,0,.59.13.82.38.75.85,1.53,1.48,2.34,1.88.8.4,1.71.6,2.73.6,1.19,0,2.19-.33,3.02-1,.82-.67,1.23-1.5,1.23-2.51-.02-1.19-.43-2.12-1.23-2.77-.8-.65-2.03-1.2-3.67-1.64-1.94-.48-3.44-1.27-4.49-2.38-1.05-1.1-1.57-2.63-1.57-4.58,0-1.35.29-2.54.88-3.57.58-1.02,1.4-1.81,2.43-2.36,1.04-.55,2.21-.83,3.51-.83,1.17,0,2.27.23,3.31.69,1.04.46,1.88,1.07,2.52,1.83.43.46.65.95.65,1.48,0,.41-.13.78-.38,1.1s-.56.48-.92.48c-.26,0-.48-.09-.65-.28-.49-.6-1.17-1.1-2.04-1.51-.87-.41-1.7-.62-2.49-.62-1.27,0-2.27.32-3.02.95-.75.63-1.12,1.46-1.12,2.5,0,1.12.37,1.99,1.12,2.58.75.6,1.85,1.1,3.33,1.52,1.47.39,2.68.85,3.61,1.38.93.53,1.66,1.26,2.17,2.21.51.94.76,2.17.76,3.68,0,1.33-.31,2.51-.92,3.55s-1.45,1.84-2.51,2.41c-1.06.57-2.22.86-3.48.86-1.38,0-2.6-.24-3.65-.71Z"/>
    <path class="cls-3" d="M854.64,147.02c.24.31.35.71.35,1.19v13.23c0,1.81-.33,3.44-.99,4.89s-1.57,2.58-2.73,3.39-2.47,1.22-3.92,1.22-2.79-.41-3.96-1.22c-1.17-.82-2.09-1.95-2.75-3.39-.66-1.45-.99-3.08-.99-4.89v-13.23c0-.48.13-.88.4-1.19.26-.31.6-.46,1.02-.46.36,0,.67.16.95.48.27.32.41.71.41,1.17v13.23c0,1.19.23,2.27.68,3.22.45.95,1.06,1.69,1.81,2.22.75.53,1.57.79,2.43.79s1.75-.26,2.52-.79c.77-.53,1.39-1.27,1.85-2.22.46-.95.69-2.03.69-3.22v-13.23c0-.48.11-.88.34-1.19.23-.31.54-.46.93-.46s.71.16.95.46Z"/>
    <path class="cls-3" d="M884.33,169.22c0,.46-.13.84-.38,1.14-.25.3-.55.45-.89.45-.26,0-.5-.1-.72-.29-.22-.19-.39-.46-.52-.81l-1.75-5.06h-8.75l-1.73,5.1c-.09.34-.25.61-.47.79s-.46.28-.72.28c-.4,0-.7-.13-.91-.38-.21-.25-.31-.6-.31-1.03,0-.09.02-.28.06-.55l7.22-21.29c.13-.37.32-.65.55-.84.24-.19.5-.27.81-.22.28,0,.54.09.76.28s.39.45.48.79l7.19,21.01c.06.21.08.43.08.65ZM872.38,161.51h6.6l-3.31-9.64-3.28,9.64Z"/>
    <path class="cls-3" d="M908.69,167.95c.25.3.38.69.38,1.17s-.13.84-.38,1.14c-.25.3-.58.45-.98.45h-9.57c-.4,0-.72-.16-.98-.48-.25-.32-.38-.71-.38-1.17v-20.8c0-.46.13-.85.4-1.17.26-.32.6-.48,1.02-.48.38,0,.7.16.98.48.27.32.41.71.41,1.17v19.25h8.13c.4,0,.72.15.98.45Z"/>
    <path class="cls-3" d="M924.31,170.34c-1.06-.47-2.07-1.23-3.03-2.29-.4-.41-.59-.88-.59-1.41,0-.41.13-.79.4-1.12.26-.33.58-.5.93-.5.32,0,.59.13.82.38.75.85,1.53,1.48,2.34,1.88.8.4,1.71.6,2.73.6,1.19,0,2.19-.33,3.02-1,.82-.67,1.23-1.5,1.23-2.51-.02-1.19-.43-2.12-1.23-2.77-.8-.65-2.03-1.2-3.67-1.64-1.94-.48-3.44-1.27-4.49-2.38-1.05-1.1-1.57-2.63-1.57-4.58,0-1.35.29-2.54.88-3.57.58-1.02,1.4-1.81,2.43-2.36,1.04-.55,2.21-.83,3.51-.83,1.17,0,2.27.23,3.31.69,1.04.46,1.88,1.07,2.52,1.83.43.46.65.95.65,1.48,0,.41-.13.78-.38,1.1s-.56.48-.92.48c-.26,0-.48-.09-.65-.28-.49-.6-1.17-1.1-2.04-1.51-.87-.41-1.7-.62-2.49-.62-1.27,0-2.27.32-3.02.95-.75.63-1.12,1.46-1.12,2.5,0,1.12.37,1.99,1.12,2.58.75.6,1.85,1.1,3.33,1.52,1.47.39,2.68.85,3.61,1.38.93.53,1.66,1.26,2.17,2.21.51.94.76,2.17.76,3.68,0,1.33-.31,2.51-.92,3.55s-1.45,1.84-2.51,2.41c-1.06.57-2.22.86-3.48.86-1.38,0-2.6-.24-3.65-.71Z"/>
  </g>
  <g>
    <path class="cls-1" d="M713.76,24.96c.64.64.96,1.39.96,2.24,0,.96-.32,1.74-.96,2.32-.64.59-1.39.88-2.24.88h-57.12v44.16h49.92c.85,0,1.6.32,2.24.96.64.64.96,1.39.96,2.24,0,.96-.32,1.74-.96,2.32-.64.59-1.39.88-2.24.88h-49.92v51.84c0,.86-.29,1.6-.88,2.24-.59.64-1.36.96-2.32.96s-1.74-.32-2.32-.96c-.59-.64-.88-1.38-.88-2.24V27.2c0-.85.32-1.6.96-2.24.64-.64,1.38-.96,2.24-.96h60.32c.85,0,1.6.32,2.24.96Z"/>
    <path class="cls-1" d="M980.56,24.96c.58.64.88,1.39.88,2.24v69.12c0,7.47-1.87,14.35-5.6,20.64-3.73,6.29-8.75,11.31-15.04,15.04-6.29,3.74-13.12,5.6-20.48,5.6s-14.35-1.86-20.64-5.6c-6.29-3.73-11.31-8.75-15.04-15.04-3.74-6.29-5.6-13.17-5.6-20.64V27.2c0-.96.32-1.73.96-2.32.64-.58,1.44-.88,2.4-.88s1.76.32,2.4.96c.64.64.96,1.39.96,2.24v69.12c0,6.29,1.54,12.11,4.64,17.44,3.09,5.33,7.28,9.58,12.56,12.72,5.28,3.15,11.06,4.72,17.36,4.72s12.08-1.57,17.36-4.72c5.28-3.14,9.49-7.38,12.64-12.72,3.14-5.33,4.72-11.15,4.72-17.44V27.2c0-.85.29-1.6.88-2.24.58-.64,1.36-.96,2.32-.96s1.73.32,2.32.96Z"/>
    <path class="cls-1" d="M1007.04,133.52c-5.87-2.72-11.68-6.96-17.44-12.72-.64-.64-.96-1.44-.96-2.4,0-.85.37-1.68,1.12-2.48.75-.8,1.54-1.2,2.4-1.2.96,0,1.87.48,2.72,1.44,4.16,4.91,9.09,8.64,14.8,11.2,5.71,2.56,11.71,3.84,18,3.84,8.21,0,14.99-1.97,20.32-5.92,5.33-3.95,8-9.17,8-15.68-.11-5.12-1.5-9.33-4.16-12.64-2.67-3.31-5.95-5.95-9.84-7.92-3.9-1.97-9.2-4.18-15.92-6.64-7.36-2.77-13.09-5.23-17.2-7.36-4.11-2.13-7.63-5.17-10.56-9.12-2.94-3.95-4.4-9.12-4.4-15.52,0-5.23,1.44-9.97,4.32-14.24,2.88-4.26,6.99-7.62,12.32-10.08,5.33-2.45,11.52-3.68,18.56-3.68,6.29,0,12.27,1.15,17.92,3.44,5.65,2.29,10.13,5.52,13.44,9.68,1.07,1.5,1.6,2.61,1.6,3.36,0,.85-.4,1.63-1.2,2.32-.8.69-1.68,1.04-2.64,1.04-.86,0-1.55-.32-2.08-.96-2.99-3.84-6.83-6.88-11.52-9.12-4.7-2.24-9.87-3.36-15.52-3.36-8.11,0-14.85,1.92-20.24,5.76-5.39,3.84-8.08,9.07-8.08,15.68,0,4.59,1.31,8.48,3.92,11.68,2.61,3.2,5.89,5.79,9.84,7.76,3.95,1.98,8.85,4.03,14.72,6.16,7.47,2.67,13.39,5.12,17.76,7.36,4.37,2.24,8.1,5.5,11.2,9.76,3.09,4.27,4.64,9.92,4.64,16.96,0,4.91-1.44,9.49-4.32,13.76-2.88,4.27-7.01,7.66-12.4,10.16-5.39,2.5-11.55,3.76-18.48,3.76-7.9,0-14.78-1.36-20.64-4.08Z"/>
  </g>
  <g>
    <g>
      <path class="cls-2" d="M804.65,81.05c0,.12,0,.24.01.37v.23c0-.11,0-.21-.01-.33v-.27Z"/>
      <line class="cls-2" x1="806.43" y1="89.7" x2="806.42" y2="89.71"/>
      <path class="cls-1" d="M890.24,35.84c0,.85-.21,1.55-.64,2.08-.64.85-1.44,1.28-2.4,1.28-.43,0-1.07-.21-1.92-.64-9.92-6.72-20.43-10.08-31.52-10.08-8.96,0-17.2,2.21-24.72,6.64-7.52,4.43-13.47,10.56-17.84,18.4-1.78,3.2-3.21,6.56-4.26,10.09l-.89-.51-4.07-2.35-.87-.51c1.13-3.32,2.57-6.52,4.33-9.6,5.01-8.8,11.79-15.71,20.32-20.72,8.53-5.01,17.87-7.52,28-7.52,6.4,0,12.61.96,18.64,2.88,6.03,1.92,11.49,4.59,16.4,8,.96.75,1.44,1.6,1.44,2.56Z"/>
      <path class="cls-3" d="M800.21,100.22l-56.09,32.38v-6.92l54.38-31.4h.01l.15.65c.02.13.05.25.08.37.14.59.3,1.17.47,1.75.07.27.15.54.24.81.1.37.21.73.34,1.09.02.1.06.2.09.3h.01c.08.26.17.52.25.78h0s.06.19.06.19Z"/>
      <path class="cls-1" d="M889.6,122.24c-.64-.85-1.49-1.28-2.56-1.28-.75,0-1.39.21-1.92.64-9.71,6.61-20.16,9.92-31.36,9.92-8.96,0-17.2-2.21-24.72-6.64-7.52-4.43-13.47-10.56-17.84-18.4-1.63-2.91-2.95-5.97-3.96-9.16h-.01c-.1-.32-.2-.65-.3-.98-.1-.33-.2-.66-.29-.99-.37-1.33-.69-2.68-.95-4.06h0c-.07-.35-.13-.7-.19-1.05-.06-.35-.12-.7-.17-1.06-.06-.37-.11-.74-.16-1.11-.04-.29-.08-.58-.12-.87-.01-.14-.03-.28-.05-.42-.03-.32-.06-.64-.09-.97-.04-.36-.07-.71-.09-1.07-.03-.26-.04-.53-.06-.81-.02-.36-.04-.72-.06-1.09,0-.07,0-.14-.01-.21-.01-.19-.01-.38-.02-.58,0-.13,0-.27,0-.4v-.23s-.01-.07-.01-.1v-.27c0-.35,0-.7,0-1.05,0-.61,0-1.22.03-1.83,0-.18.01-.35.01-.53.03-.6.06-1.19.1-1.78.03-.57.08-1.14.13-1.7.02-.19.04-.38.06-.57.06-.57.13-1.14.2-1.7.01-.02.01-.03.01-.05l-.94-.54-4.34-2.5-.91-.53c-.72,3.77-1.07,7.68-1.07,11.73,0,4.41.42,8.65,1.27,12.73.07.35.14.69.22,1.03.07.34.15.68.24,1.02.08.34.16.67.25,1,.1.4.21.8.32,1.19.08.28.16.57.25.85.01.03.02.07.03.1.06.21.13.41.2.62.02.07.04.13.06.2.11.32.22.65.33.97.11.32.22.64.34.96,1.07,3,2.42,5.9,4.01,8.69,5.01,8.8,11.79,15.71,20.32,20.72,8.53,5.01,17.87,7.52,28,7.52,6.18,0,12.56-1.07,19.12-3.2,6.56-2.13,11.92-4.69,16.08-7.68.85-.64,1.28-1.49,1.28-2.56,0-.75-.21-1.39-.64-1.92Z"/>
      <path class="cls-3" d="M822.93,80.55c0,4.1-2.11,7.77-5.66,9.82l-9.45,5.45c-.1-.32-.19-.65-.28-.98-.07-.26-.14-.52-.21-.79-.28-1.09-.53-2.19-.72-3.29h0s-.13-.69-.13-.69l-.06-.36h.01s7.84-4.53,7.84-4.53c1.67-.97,2.66-2.7,2.66-4.63s-.99-3.65-2.66-4.62l-8.01-4.62-.93-.54-.93-.54-5.21-3-.91-.53-63.15-36.46c-.84-.48-1.75-.72-2.67-.72s-1.83.24-2.67.72c-1.67.97-2.67,2.69-2.67,4.62v81.11h-6V34.86c0-4.09,2.12-7.77,5.67-9.81,3.55-2.05,7.79-2.05,11.34,0l61.77,35.65.88.51,5.87,3.39.89.52,9.73,5.61c3.55,2.05,5.66,5.72,5.66,9.82Z"/>
    </g>
    <path class="cls-3" d="M721.12,119.53v6.71c0,4.1,2.12,7.77,5.67,9.82.76.44,1.55.79,2.36,1.03v-17.56h-8.03Z"/>
    <path class="cls-3" d="M732.3,131.59v6.01h.16c.69,0,1.37-.06,2.05-.2,1.25-.22,2.47-.67,3.62-1.34l2.2-1.27v-15.26h-8.03v12.06Z"/>
  </g>
</svg>